<svg xmlns="http://www.w3.org/2000/svg" xmlns:xlink="http://www.w3.org/1999/xlink" id="visual" width="960" height="300" version="1.1" viewBox="0 0 960 300"><path fill="#fff" d="M0 191L32 190.5C64 190 128 189 192 190.7C256 192.3 320 196.7 384 202C448 207.3 512 213.7 576 215.3C640 217 704 214 768 212.8C832 211.7 896 212.3 928 212.7L960 213L960 301L928 301C896 301 832 301 768 301C704 301 640 301 576 301C512 301 448 301 384 301C320 301 256 301 192 301C128 301 64 301 32 301L0 301Z"/><path fill="#f8f8f8" d="M0 204L32 207.8C64 211.7 128 219.3 192 226.2C256 233 320 239 384 238.8C448 238.7 512 232.3 576 231.5C640 230.7 704 235.3 768 234C832 232.7 896 225.3 928 221.7L960 218L960 301L928 301C896 301 832 301 768 301C704 301 640 301 576 301C512 301 448 301 384 301C320 301 256 301 192 301C128 301 64 301 32 301L0 301Z"/><path fill="#f2f2f2" d="M0 235L32 234.3C64 233.7 128 232.3 192 236.7C256 241 320 251 384 254.8C448 258.7 512 256.3 576 256.5C640 256.7 704 259.3 768 257.5C832 255.7 896 249.3 928 246.2L960 243L960 301L928 301C896 301 832 301 768 301C704 301 640 301 576 301C512 301 448 301 384 301C320 301 256 301 192 301C128 301 64 301 32 301L0 301Z"/><path fill="#ececec" d="M0 260L32 262C64 264 128 268 192 269.3C256 270.7 320 269.3 384 270.5C448 271.7 512 275.3 576 277.8C640 280.3 704 281.7 768 280.7C832 279.7 896 276.3 928 274.7L960 273L960 301L928 301C896 301 832 301 768 301C704 301 640 301 576 301C512 301 448 301 384 301C320 301 256 301 192 301C128 301 64 301 32 301L0 301Z"/></svg>